<?xml version="1.0" standalone="no"?>
<!DOCTYPE svg PUBLIC "-//W3C//DTD SVG 20010904//EN"
 "http://www.w3.org/TR/2001/REC-SVG-20010904/DTD/svg10.dtd">
<svg version="1.0" xmlns="http://www.w3.org/2000/svg"
 width="256.000000pt" height="256.000000pt" viewBox="0 0 256.000000 256.000000"
 preserveAspectRatio="xMidYMid meet">
<metadata>
Created by potrace 1.11, written by Peter Selinger 2001-2013
</metadata>
<g transform="translate(0.000000,256.000000) scale(0.100000,-0.100000)"
fill="#000000" stroke="none">
<path d="M332 2323 c-76 -26 -115 -97 -109 -200 2 -34 0 -60 -3 -58 -4 3 -7
-9 -6 -25 1 -17 3 -30 6 -30 3 0 5 -33 5 -74 0 -41 -3 -72 -7 -69 -5 2 -8 0
-8 -6 0 -5 4 -12 8 -15 5 -3 6 -26 2 -51 -4 -24 -5 -47 -2 -50 6 -5 5 -145 -1
-187 -3 -16 -1 -28 2 -28 7 0 5 -76 -3 -97 -3 -7 -1 -13 4 -13 6 0 6 -9 0 -25
-5 -14 -6 -25 -2 -25 4 0 7 -13 7 -30 0 -16 -3 -30 -6 -30 -3 0 -6 -7 -6 -15
0 -8 3 -15 7 -15 3 0 3 -25 0 -55 -3 -31 -2 -55 3 -55 5 0 4 -7 -3 -15 -7 -8
-17 -12 -24 -8 -6 3 -7 2 -3 -3 5 -5 14 -9 20 -9 5 0 12 -6 15 -14 3 -8 1 -11
-4 -8 -5 3 -9 -10 -9 -29 0 -19 2 -34 5 -34 3 0 5 -33 5 -74 0 -41 -3 -72 -7
-69 -5 2 -8 0 -8 -6 0 -5 4 -12 8 -15 5 -3 6 -26 2 -51 -4 -24 -5 -47 -2 -50
6 -5 5 -145 -1 -187 -3 -16 -1 -28 2 -28 7 0 5 -76 -3 -97 -3 -7 -1 -13 4 -13
6 0 6 -9 0 -25 -5 -14 -6 -25 -2 -25 4 0 7 -18 6 -40 0 -23 3 -43 8 -46 5 -3
1 -12 -9 -19 -17 -13 -17 -14 2 -9 15 4 25 -2 35 -20 7 -14 19 -26 26 -26 7 0
14 -5 16 -12 5 -15 30 -20 105 -21 34 -1 59 -5 57 -9 -3 -5 -10 -5 -16 -2 -9
6 -27 -12 -28 -27 0 -4 11 -9 25 -11 31 -6 33 0 3 11 -12 4 -17 10 -11 14 6 4
24 -3 39 -15 19 -15 24 -16 15 -5 -7 9 -10 17 -7 17 12 0 76 -47 71 -52 -3 -2
2 -5 10 -5 10 0 12 4 6 10 -5 5 -7 16 -4 23 3 8 -1 14 -8 14 -8 0 -5 6 7 16
18 14 18 15 -5 4 -16 -8 -21 -9 -17 -1 4 6 2 11 -3 11 -16 0 -14 -11 6 -32 10
-11 12 -18 4 -18 -6 0 -17 11 -23 25 -8 19 -14 22 -20 13 -6 -10 -8 -10 -8 1
0 11 -3 11 -18 0 -15 -12 -16 -12 -5 1 10 13 38 15 155 15 79 0 148 -4 155 -8
6 -4 14 -4 16 0 6 10 388 10 403 1 6 -4 14 -4 18 0 10 10 497 10 517 1 9 -5
20 -5 23 -1 4 4 105 7 224 8 119 1 228 4 241 8 14 3 40 20 59 38 30 29 33 30
27 11 -3 -13 -2 -23 4 -23 5 0 8 14 6 30 -2 17 0 28 5 25 4 -3 6 5 2 17 -3 12
-1 19 4 15 6 -3 8 9 6 30 -3 23 -1 33 6 29 6 -3 14 -2 17 4 4 6 1 9 -6 8 -10
-2 -14 21 -14 102 0 82 3 104 13 102 8 -1 11 2 7 8 -3 6 -11 8 -16 4 -7 -4 -9
9 -7 32 2 26 7 38 16 36 8 -1 11 2 7 8 -3 6 -10 8 -14 6 -4 -3 -7 47 -7 112 1
91 4 116 14 114 8 -1 11 2 7 8 -3 6 -11 8 -16 4 -7 -4 -9 9 -7 32 2 26 7 38
16 36 8 -1 11 2 7 8 -3 6 -10 8 -14 6 -4 -3 -7 47 -7 112 1 91 4 116 14 114 8
-1 11 2 7 8 -3 6 -11 8 -16 4 -7 -4 -9 9 -7 32 2 26 7 38 16 36 8 -1 11 2 7 8
-3 6 -10 8 -14 6 -4 -3 -7 47 -7 112 1 91 4 116 14 114 8 -1 11 2 7 8 -3 6
-11 8 -16 4 -7 -4 -9 9 -7 32 2 26 7 38 16 36 8 -1 11 2 7 8 -3 6 -10 8 -14 6
-4 -3 -7 47 -7 112 1 91 4 116 14 114 8 -1 11 2 7 8 -3 6 -11 8 -16 4 -7 -4
-9 9 -7 32 2 26 7 38 16 36 8 -1 11 2 7 8 -3 6 -10 8 -14 6 -4 -3 -7 37 -6 87
1 144 -24 204 -100 245 -27 14 -125 16 -954 17 -683 0 -934 -3 -959 -12z"/>
<path d="M180 2006 c0 -2 8 -10 18 -17 15 -13 16 -12 3 4 -13 16 -21 21 -21
13z"/>
<path d="M180 1526 c0 -2 8 -10 18 -17 15 -13 16 -12 3 4 -13 16 -21 21 -21
13z"/>
<path d="M180 1046 c0 -2 8 -10 18 -17 15 -13 16 -12 3 4 -13 16 -21 21 -21
13z"/>
<path d="M180 566 c0 -2 8 -10 18 -17 15 -13 16 -12 3 4 -13 16 -21 21 -21 13z"/>
<path d="M2355 489 c-4 -6 -5 -12 -2 -15 2 -3 7 2 10 11 7 17 1 20 -8 4z"/>
<path d="M195 361 c-3 -5 -2 -12 3 -15 5 -3 9 1 9 9 0 17 -3 19 -12 6z"/>
<path d="M2280 241 c-13 -25 -13 -31 2 -31 6 0 8 3 5 6 -3 4 -2 15 4 25 5 11
7 19 5 19 -3 0 -10 -9 -16 -19z"/>
<path d="M230 241 c0 -6 4 -13 10 -16 6 -3 7 1 4 9 -7 18 -14 21 -14 7z"/>
<path d="M326 207 c3 -9 10 -17 16 -17 5 0 7 -4 4 -8 -2 -4 4 -8 14 -8 10 0
16 4 13 9 -3 5 4 6 15 3 12 -4 22 -2 25 7 3 9 -4 13 -23 12 -16 0 -26 -3 -23
-7 8 -14 -10 -8 -29 9 -18 16 -18 16 -12 0z"/>
<path d="M2228 208 c5 -5 16 -8 23 -6 8 3 3 7 -10 11 -17 4 -21 3 -13 -5z"/>
<path d="M589 200 c0 -3 -2 -12 -4 -21 -1 -9 2 -23 7 -30 8 -11 9 -10 4 4 -5
16 8 25 17 10 2 -5 2 -3 1 4 -2 7 1 15 6 18 6 4 10 1 10 -5 0 -6 5 -8 10 -5 6
3 10 2 10 -3 0 -5 12 -18 28 -28 19 -12 23 -13 15 -2 -10 12 -10 18 1 33 12
17 14 17 29 -6 10 -13 17 -19 17 -13 0 5 -5 15 -12 22 -8 8 -8 12 -1 12 6 0
16 -6 23 -14 6 -8 19 -12 27 -9 10 4 14 2 10 -4 -3 -5 0 -10 8 -10 8 0 17 8
20 18 3 9 12 16 19 15 22 -3 46 -27 40 -40 -3 -6 2 -2 10 8 9 11 16 23 16 27
0 11 28 5 42 -9 16 -16 31 -15 25 2 -3 7 -1 18 4 23 6 6 4 10 -6 10 -8 0 -15
-7 -15 -14 0 -8 -5 -11 -10 -8 -6 4 -8 10 -6 14 3 3 -11 7 -30 7 -22 0 -34 -5
-34 -14 0 -7 -5 -10 -10 -7 -6 4 -8 10 -6 14 8 13 -43 6 -56 -7 -15 -15 -29
-15 -25 0 1 9 -24 12 -90 13 -51 0 -93 -2 -94 -5z m26 -10 c-3 -5 -12 -10 -18
-10 -7 0 -6 4 3 10 19 12 23 12 15 0z m68 -7 c-9 -7 -13 -13 -8 -13 4 0 6 -3
3 -6 -4 -3 -15 3 -26 14 -19 19 -19 19 15 18 29 -1 31 -3 16 -13z m84 0 c0 -9
-4 -10 -14 -2 -7 6 -13 12 -13 14 0 1 6 2 13 2 8 0 14 -6 14 -14z m47 2 c-4
-8 -11 -15 -16 -15 -6 0 -5 6 2 15 7 8 14 15 16 15 2 0 1 -7 -2 -15z m80 0
c-4 -8 -11 -15 -16 -15 -6 0 -5 6 2 15 7 8 14 15 16 15 2 0 1 -7 -2 -15z"/>
<path d="M989 200 c0 -3 -2 -13 -4 -22 -2 -10 1 -20 5 -23 5 -3 7 -14 5 -25
-2 -12 0 -18 5 -15 9 6 8 24 -3 43 -12 18 1 15 36 -9 l32 -21 -29 25 c-18 16
-24 27 -17 31 6 4 11 2 11 -4 0 -6 5 -8 10 -5 6 3 10 0 10 -7 0 -8 5 -6 11 5
5 9 15 17 22 17 8 0 8 -3 2 -8 -14 -10 -18 -39 -6 -46 5 -4 13 -1 17 5 4 8 3
9 -4 5 -15 -9 -15 -1 -1 25 10 19 29 18 29 -2 0 -6 -6 -7 -12 -3 -9 5 -9 2 1
-9 17 -22 19 -21 17 6 -1 12 1 27 5 32 5 7 -19 10 -67 10 -41 1 -74 -2 -75 -5z
m26 -10 c-3 -5 -12 -10 -18 -10 -7 0 -6 4 3 10 19 12 23 12 15 0z m49 -2 c-3
-4 -11 -5 -19 -1 -21 7 -19 12 4 10 11 0 18 -5 15 -9z"/>
<path d="M1149 201 c0 -3 -2 -15 -4 -26 -3 -13 4 -26 18 -34 l22 -14 -20 23
c-18 21 -18 23 -2 17 10 -4 16 -3 12 2 -3 5 -1 12 5 16 10 6 13 -5 11 -35 0
-10 1 -11 5 -2 3 6 11 9 17 6 8 -5 8 -2 0 7 -22 22 -14 33 9 13 12 -10 18 -13
13 -5 -6 11 -4 13 9 8 10 -4 20 -7 22 -7 3 0 3 -4 0 -8 -3 -5 1 -9 9 -9 8 0
17 8 20 18 3 9 12 16 19 15 22 -3 46 -27 40 -40 -3 -6 2 -2 10 8 9 11 16 23
16 27 0 9 21 6 40 -6 26 -16 43 -16 29 1 -19 23 -1 16 49 -17 26 -18 42 -26
35 -19 -6 7 -9 19 -6 26 3 8 -1 14 -8 14 -8 0 -7 4 4 13 16 11 15 12 -8 13
-29 2 -31 -3 -8 -28 10 -11 12 -18 4 -18 -6 0 -17 11 -23 25 -8 19 -14 22 -20
13 -4 -8 -8 -8 -8 -2 0 6 -7 11 -15 11 -8 0 -15 -7 -15 -14 0 -8 -5 -11 -10
-8 -6 4 -8 10 -6 14 3 3 -11 7 -30 7 -22 0 -34 -5 -34 -14 0 -7 -5 -10 -10 -7
-6 4 -8 10 -6 14 7 10 -35 8 -51 -2 -7 -5 -13 -4 -13 0 0 12 -38 14 -45 2 -4
-5 -12 -6 -18 -2 -15 9 -57 12 -58 4z m26 -11 c-3 -5 -12 -10 -18 -10 -7 0 -6
4 3 10 19 12 23 12 15 0z m85 0 c9 -5 19 -5 27 2 11 8 12 7 7 -6 -4 -11 -12
-15 -23 -10 -9 4 -24 7 -33 8 -9 0 -14 4 -12 8 7 10 16 10 34 -2z m114 -5 c-4
-8 -11 -15 -16 -15 -6 0 -5 6 2 15 7 8 14 15 16 15 2 0 1 -7 -2 -15z"/>
<path d="M1549 200 c0 -3 -2 -13 -4 -22 -5 -25 19 -55 30 -38 5 8 4 11 -2 7
-6 -4 -14 0 -17 9 -5 12 -2 15 9 10 9 -3 13 -2 10 3 -3 5 -1 12 5 16 5 3 10 1
10 -5 0 -6 5 -8 10 -5 6 3 10 2 10 -3 0 -5 12 -18 28 -28 19 -12 23 -13 15 -2
-10 12 -10 18 1 33 12 17 14 17 29 -6 10 -13 17 -19 17 -13 0 5 -5 15 -12 22
-8 8 -8 12 -1 12 6 0 16 -6 23 -14 6 -8 19 -12 27 -9 10 4 14 2 10 -4 -3 -5 0
-10 8 -10 8 0 17 8 20 18 3 9 12 16 19 15 22 -3 46 -27 40 -40 -3 -6 2 -2 10
8 9 11 16 23 16 27 0 11 28 5 42 -9 16 -16 31 -15 25 2 -3 7 -1 18 4 23 6 6 4
10 -6 10 -8 0 -15 -7 -15 -14 0 -8 -5 -11 -10 -8 -6 4 -8 10 -6 14 3 3 -11 7
-30 7 -22 0 -34 -5 -34 -14 0 -7 -5 -10 -10 -7 -6 4 -8 10 -6 14 8 13 -43 6
-56 -7 -15 -15 -29 -15 -25 0 1 9 -24 12 -90 13 -51 0 -93 -2 -94 -5z m26 -10
c-3 -5 -12 -10 -18 -10 -7 0 -6 4 3 10 19 12 23 12 15 0z m68 -7 c-9 -7 -13
-13 -8 -13 4 0 6 -3 3 -6 -4 -3 -15 3 -26 14 -19 19 -19 19 15 18 29 -1 31 -3
16 -13z m84 0 c0 -9 -4 -10 -14 -2 -7 6 -13 12 -13 14 0 1 6 2 13 2 8 0 14 -6
14 -14z m47 2 c-4 -8 -11 -15 -16 -15 -6 0 -5 6 2 15 7 8 14 15 16 15 2 0 1
-7 -2 -15z m80 0 c-4 -8 -11 -15 -16 -15 -6 0 -5 6 2 15 7 8 14 15 16 15 2 0
1 -7 -2 -15z"/>
<path d="M1949 200 c0 -3 -2 -13 -4 -22 -2 -10 1 -20 5 -23 5 -3 7 -14 5 -25
-2 -12 0 -18 5 -15 9 6 8 24 -3 43 -12 18 1 15 36 -9 l32 -21 -29 25 c-16 14
-24 27 -18 31 6 3 12 1 14 -6 3 -7 9 -8 18 -3 24 15 52 13 46 -2 -3 -8 -2 -12
3 -8 5 3 12 -1 15 -7 3 -7 3 -2 -1 12 -5 22 -4 23 11 11 13 -11 20 -11 28 -3
17 17 33 15 19 -2 -9 -11 -9 -16 0 -22 7 -4 9 -3 6 3 -4 6 1 17 10 24 14 12
15 11 9 -11 l-7 -25 14 23 c7 12 16 19 21 15 4 -4 4 1 0 11 -5 14 -9 15 -15 4
-7 -10 -9 -10 -9 2 0 13 -1 13 -10 0 -5 -8 -10 -10 -10 -4 0 5 -11 10 -25 10
-14 0 -25 -5 -25 -10 0 -6 -5 -4 -10 4 -9 13 -10 13 -10 0 0 -13 -1 -13 -10 0
-6 10 -10 11 -10 3 0 -7 -5 -13 -11 -13 -5 0 -8 4 -5 8 2 4 -15 8 -40 8 -24 0
-44 -3 -45 -6z m26 -10 c-3 -5 -12 -10 -18 -10 -7 0 -6 4 3 10 19 12 23 12 15
0z m45 4 c0 -8 -19 -13 -24 -6 -3 5 1 9 9 9 8 0 15 -2 15 -3z m95 -4 c-3 -5
-12 -10 -18 -10 -7 0 -6 4 3 10 19 12 23 12 15 0z"/>
<path d="M2195 200 c3 -5 8 -10 11 -10 2 0 4 5 4 10 0 6 -5 10 -11 10 -5 0 -7
-4 -4 -10z"/>
<path d="M293 171 c0 -11 5 -18 9 -15 4 3 5 11 1 19 -7 21 -12 19 -10 -4z"/>
<path d="M2219 188 c-5 -16 -4 -50 1 -53 4 -3 7 6 6 18 -1 12 3 25 9 29 6 5 6
8 -2 8 -7 0 -13 -1 -14 -2z"/>
<path d="M385 160 c-3 -6 1 -7 9 -4 18 7 21 14 7 14 -6 0 -13 -4 -16 -10z"/>
<path d="M706 157 c3 -10 9 -15 12 -12 3 3 0 11 -7 18 -10 9 -11 8 -5 -6z"/>
<path d="M906 162 c-3 -5 1 -9 9 -9 8 0 15 4 15 9 0 4 -4 8 -9 8 -6 0 -12 -4
-15 -8z"/>
<path d="M1386 162 c-3 -5 1 -9 9 -9 8 0 15 4 15 9 0 4 -4 8 -9 8 -6 0 -12 -4
-15 -8z"/>
<path d="M1666 157 c3 -10 9 -15 12 -12 3 3 0 11 -7 18 -10 9 -11 8 -5 -6z"/>
<path d="M1866 162 c-3 -5 1 -9 9 -9 8 0 15 4 15 9 0 4 -4 8 -9 8 -6 0 -12 -4
-15 -8z"/>
<path d="M2030 150 c9 -17 30 -20 30 -4 0 3 -4 2 -10 -1 -5 -3 -10 1 -10 9 0
9 -5 16 -10 16 -7 0 -7 -7 0 -20z"/>
<path d="M437 149 c7 -7 15 -10 18 -7 3 3 -2 9 -12 12 -14 6 -15 5 -6 -5z"/>
<path d="M514 135 c0 -13 3 -22 7 -19 8 4 6 30 -2 38 -3 3 -5 -5 -5 -19z"/>
<path d="M1474 135 c0 -13 3 -22 7 -19 8 4 6 30 -2 38 -3 3 -5 -5 -5 -19z"/>
<path d="M400 140 c-9 -6 -10 -10 -3 -10 6 0 15 5 18 10 8 12 4 12 -15 0z"/>
<path d="M473 133 c0 -9 4 -10 14 -2 7 6 13 12 13 14 0 1 -6 2 -13 2 -8 0 -14
-6 -14 -14z"/>
<path d="M754 135 c3 -23 12 -26 13 -5 1 11 -2 20 -7 20 -4 0 -7 -7 -6 -15z"/>
<path d="M828 143 c6 -2 18 -2 25 0 6 3 1 5 -13 5 -14 0 -19 -2 -12 -5z"/>
<path d="M940 145 c0 -7 30 -13 34 -7 3 4 -4 9 -15 9 -10 1 -19 0 -19 -2z"/>
<path d="M1234 135 c3 -23 12 -26 13 -5 1 11 -2 20 -7 20 -4 0 -7 -7 -6 -15z"/>
<path d="M1308 143 c6 -2 18 -2 25 0 6 3 1 5 -13 5 -14 0 -19 -2 -12 -5z"/>
<path d="M1420 145 c0 -7 30 -13 34 -7 3 4 -4 9 -15 9 -10 1 -19 0 -19 -2z"/>
<path d="M1714 135 c3 -23 12 -26 13 -5 1 11 -2 20 -7 20 -4 0 -7 -7 -6 -15z"/>
<path d="M1788 143 c6 -2 18 -2 25 0 6 3 1 5 -13 5 -14 0 -19 -2 -12 -5z"/>
<path d="M1900 145 c0 -7 30 -13 34 -7 3 4 -4 9 -15 9 -10 1 -19 0 -19 -2z"/>
<path d="M2100 140 c-9 -6 -10 -10 -3 -10 6 0 15 5 18 10 8 12 4 12 -15 0z"/>
<path d="M914 126 c1 -8 5 -18 8 -22 4 -3 5 1 4 10 -1 8 -5 18 -8 22 -4 3 -5
-1 -4 -10z"/>
<path d="M1394 126 c1 -8 5 -18 8 -22 4 -3 5 1 4 10 -1 8 -5 18 -8 22 -4 3 -5
-1 -4 -10z"/>
<path d="M1874 126 c1 -8 5 -18 8 -22 4 -3 5 1 4 10 -1 8 -5 18 -8 22 -4 3 -5
-1 -4 -10z"/>
<path d="M633 115 c0 -8 4 -12 9 -9 4 3 8 9 8 15 0 5 -4 9 -8 9 -5 0 -9 -7 -9
-15z"/>
<path d="M1110 120 c0 -5 5 -10 10 -10 6 0 10 5 10 10 0 6 -4 10 -10 10 -5 0
-10 -4 -10 -10z"/>
<path d="M1590 120 c0 -5 5 -10 10 -10 6 0 10 5 10 10 0 6 -4 10 -10 10 -5 0
-10 -4 -10 -10z"/>
</g>
</svg>
